<svg xmlns="http://www.w3.org/2000/svg" viewBox="0 0 660 660">
  <circle cx="330" cy="330" r="330" fill="#fbce51" />
  <g style="mix-blend-mode:overlay">
    <path d="M472.54,613.06l-.4-.82,1.5-1-4.18-8.35-.33,2.77-1.91,8.24.19.46,1.56-.5.39.82-4.6,2.33-.39-.81,1.26-.89-5.15-10.45-1.47.53-.39-.82,4.7-2.31.39.82-1.35.86,4.25,8.47.28-2.57,1.95-8.44-.34-.6-1.68.57-.4-.82,4.7-2.31.39.82-1.35.86,5.14,10.44,1.44-.43.39.82Z" />
    <path
      d="M461.16,618.26a13.15,13.15,0,0,1-1.23.79,5.82,5.82,0,0,1-1.06.53,6.46,6.46,0,0,1-3.57.78,2.54,2.54,0,0,1-2.09-1.69,3.37,3.37,0,0,1-.13-2.58,4.42,4.42,0,0,1,1.66-2,4.28,4.28,0,0,1-2.82.27,3.26,3.26,0,0,1-1.79-1.71,3.69,3.69,0,0,1-.13-3.29,6.21,6.21,0,0,1,3.15-2.62,6.62,6.62,0,0,1,1.89-.61,6.72,6.72,0,0,1,1.39-.24,3.31,3.31,0,0,1,.62,0l1,3.12-.82.39-1.49-2a5,5,0,0,0-2.49.56,2,2,0,0,0-1.41,1.45,3.6,3.6,0,0,0,.29,2.32,2.86,2.86,0,0,0,1.43,1.51,3.25,3.25,0,0,0,2.51-.25l1.16-.5.46.94-1,.43a4.07,4.07,0,0,0-1.25.89,3.88,3.88,0,0,0-.67,1.35,3.76,3.76,0,0,0,.26,1.7,2.07,2.07,0,0,0,1.36,1.38,3.35,3.35,0,0,0,2-.28,4.93,4.93,0,0,0,1.23-.79,2.26,2.26,0,0,0,.51-.78l-.35-1.72,1.06-.53,1.34,2.6A11.51,11.51,0,0,0,461.16,618.26Z" />
    <path
      d="M445.94,623.75l1.51-.3.36.91-2.38.89c-.36.21-.91.37-1.48.62a10,10,0,0,0-1.18.6,6.57,6.57,0,0,1-3.71.53,2.62,2.62,0,0,1-1.86-1.82,3.36,3.36,0,0,1,1.43-4.2,4.14,4.14,0,0,1-2.91.24,3,3,0,0,1-1.83-1.92,3.53,3.53,0,0,1,.17-3.31,6.51,6.51,0,0,1,3.68-2.68,6.14,6.14,0,0,1,1.22-.39c.89-.27,1.47-.52,1.68-.57l2.28-.91.27.88-1.42.74ZM438,614.1a4.44,4.44,0,0,0-2.29,1.73,3.27,3.27,0,0,0,1.46,4,3.19,3.19,0,0,0,2.51-.24c1.15-.51,1.92-.71,2.28-.92l-2-5.21A8.87,8.87,0,0,0,438,614.1Zm3.27,6.07-.92.36a2.66,2.66,0,0,0-1.6,1.41,2.51,2.51,0,0,0,.14,2.17,2.63,2.63,0,0,0,1.31,1.58,3.23,3.23,0,0,0,2.41-.27c.46-.19.82-.4,1.27-.58l.37-.21-1.85-4.87A5.6,5.6,0,0,1,441.3,620.17Z" />
    <path d="M431.1,630.47l-1.92.71-8.41-10.81-1.17.2-.28-.89,4.71-1.59.27.89-1.4.64,1.71,2.39,5.16-1.77,0-2.87-1.6.28-.27-.88,4.24-1.41.28.89-1.06.53Zm-2-2.46,1,1.37-.14-1.77-.16-6.25-4.49,1.55Z" />
    <path d="M416.48,621.16a5.16,5.16,0,0,1,2.79,1.76,8.08,8.08,0,0,1,1.73,3.42,8.29,8.29,0,0,1,.2,3.82,5.48,5.48,0,0,1-1.63,3,7.48,7.48,0,0,1-3,1.83,13.3,13.3,0,0,1-3.4.52l-.62,0-.76-3.26,1.23-.38,1.15,2.14a4.29,4.29,0,0,0,1,.16,9.17,9.17,0,0,0,1.6-.29,3.43,3.43,0,0,0,1.86-1.23,4.13,4.13,0,0,0,.83-2.32,10.12,10.12,0,0,0-.38-3.16,8.61,8.61,0,0,0-1.36-2.91,5.43,5.43,0,0,0-2-1.75,3.69,3.69,0,0,0-2.51-.16,4.78,4.78,0,0,0-1.37.54,2.71,2.71,0,0,0-.7.73l-.23,2-1.17.2-.31-2.63a5.47,5.47,0,0,0,1.06-.54,4.62,4.62,0,0,1,1.2-.69,7.28,7.28,0,0,1,1.47-.53A4.61,4.61,0,0,1,416.48,621.16Z" />
    <path
      d="M402.4,635.72a7,7,0,0,1-1.62,2.62,5.21,5.21,0,0,1-2.6,1.34,5.27,5.27,0,0,1-5.67-2,7.42,7.42,0,0,1-1.45-3.34,10.64,10.64,0,0,1-.15-4,6.22,6.22,0,0,1,1.53-3,5.56,5.56,0,0,1,2.78-1.61,5.72,5.72,0,0,1,3.34.09,5.87,5.87,0,0,1,2.47,1.78,7.42,7.42,0,0,1,1.45,3.34l2.92-.64-1.22-5.32-1.58.19-.18-.87,5-1.2.18.86-1.47.53,2.68,11.31,1.45-.12.18.86-4.89,1.13-.17-.86,1.46-.52-1.13-4.89-3,.74A13.47,13.47,0,0,1,402.4,635.72Zm-2.07.87a8.62,8.62,0,0,0,0-4.8,8.39,8.39,0,0,0-2-4,3.38,3.38,0,0,0-3.21-1,3.07,3.07,0,0,0-2.3,2.13,9.14,9.14,0,0,0,.13,4.82,8.28,8.28,0,0,0,1.89,4,2.82,2.82,0,0,0,3,.91A2.89,2.89,0,0,0,400.33,636.59Z" />
    <path d="M381.12,634.91c-.56-.56-1.38-1.29-2.25-2.24-.63-.68-1-1.18-1.34-1.47a2.18,2.18,0,0,0-.78-.52l-.69-.08-.17-.86,2.25-.42a1.5,1.5,0,0,1,1.06.59,20.93,20.93,0,0,1,1.71,2,25.58,25.58,0,0,0,2,2.27c.47.54.92.76,1.35.67l1.17-.19-.94-5.25-1.65.07-.17-.86,5-.9.16,1-1.44.43,2,11.44H390l.15,1-4.9.83-.1-1.15,1.46-.53-.91-5.33-1.61.28-2.82,6,1.56-.1.15,1-4.5.83-.16-1,1.44-.43,3.07-6.11A3.58,3.58,0,0,1,381.12,634.91Z" />
    <path d="M372.77,630.73A4.66,4.66,0,0,1,375,633a10.78,10.78,0,0,1,1.18,3.57,7.56,7.56,0,0,1-.33,3.89,6.68,6.68,0,0,1-1.86,2.76,6.22,6.22,0,0,1-3.1,1.31,5.18,5.18,0,0,1-4.65-1.25,7.61,7.61,0,0,1-2.16-4.86,7.89,7.89,0,0,1,.32-3.88,7.1,7.1,0,0,1,1.89-2.86,7,7,0,0,1,3.1-1.31A5.83,5.83,0,0,1,372.77,630.73Zm.77,10.8a8.93,8.93,0,0,0,.46-4.76,7.85,7.85,0,0,0-1.6-4.3,3,3,0,0,0-3-1.22,3.14,3.14,0,0,0-2.56,2,8.79,8.79,0,0,0-.46,4.77,7.14,7.14,0,0,0,1.62,4.2,3.2,3.2,0,0,0,3,1.22A2.77,2.77,0,0,0,373.54,641.53Z" />
    <path
      d="M361.39,644.29l1.51.1.05.93-2.51.24c-.4,0-.95.15-1.58.19s-1.05.12-1.26.17a6.07,6.07,0,0,1-3.74-.49,2.94,2.94,0,0,1-1.32-2.29,3.84,3.84,0,0,1,.51-2.31,3.56,3.56,0,0,1,2-1.4,4.49,4.49,0,0,1-2.91-.57,2.81,2.81,0,0,1-1.22-2.27,4,4,0,0,1,1.05-3.18,6.34,6.34,0,0,1,4.3-1.59,4.54,4.54,0,0,1,1.34-.05,10.24,10.24,0,0,1,1.74,0l2.51-.24.06.93-1.51.31Zm-5-11.42a3.51,3.51,0,0,0-2.62,1,2.49,2.49,0,0,0-.61,2.28,2.42,2.42,0,0,0,.9,2,3.72,3.72,0,0,0,2.42.45,14,14,0,0,0,2.42-.27l-.46-5.52A6,6,0,0,0,356.41,632.87ZM358,639.6l-1.06.13a2.47,2.47,0,0,0-1.87.92,3.27,3.27,0,0,0-.47,2.11,2.39,2.39,0,0,0,.83,1.86,3.46,3.46,0,0,0,2.33.42,8,8,0,0,0,1.39-.24l.43-.09-.44-5.21C358.8,639.52,358.49,639.54,358,639.6Z" />
    <path d="M332,647l-.05-.94,1.6-.28-.35-11.6-1.79-.18-.06-.93,5.23-.13.06.94-1.58.18.33,11.7,5.94-.13L341,634l-1.69-.15-.05-.93,5.23-.13.05.93-1.48.22.35,11.6,1.57.22.06.93Z" />
    <path d="M327.63,633.82a5.5,5.5,0,0,1,2,2.56,10.39,10.39,0,0,1,.63,3.73,8.59,8.59,0,0,1-.9,3.73,6.1,6.1,0,0,1-2.29,2.45,6.56,6.56,0,0,1-3.19.88,5.52,5.52,0,0,1-4.38-1.89A8.24,8.24,0,0,1,318,640.1a7.62,7.62,0,0,1,.92-3.83,6.55,6.55,0,0,1,2.31-2.54,6.34,6.34,0,0,1,3.28-.85A5.13,5.13,0,0,1,327.63,633.82Zm-.75,10.79A8.55,8.55,0,0,0,328,640a9.22,9.22,0,0,0-.95-4.43,3.16,3.16,0,0,0-2.82-1.67,3.22,3.22,0,0,0-2.86,1.57,9,9,0,0,0-1.16,4.68,7.78,7.78,0,0,0,1,4.43,3.13,3.13,0,0,0,2.81,1.67A4.23,4.23,0,0,0,326.88,644.61Z" />
    <path d="M312.13,637.71a9.65,9.65,0,0,1,1.42-3.8,3.52,3.52,0,0,1,1-1,2.32,2.32,0,0,1,1.2-.29,12.54,12.54,0,0,1,1.29.14v1.53a11.08,11.08,0,0,0-1.39-.17.84.84,0,0,0-.64.14,2.08,2.08,0,0,0-.54.46c-1.09,1.44-1.69,4.44-2,8.94l-.1,1.5,2.14.38,0,.9-10.82-.66,0-.9,1.77-.14.76-11.61-1.85-.29,0-.91,5.69.41,0,.9-1.95.09L307.33,645l3.81.21.15-1.7C311.57,641.33,311.79,639.35,312.13,637.71Z" />
    <path d="M300.25,644.4l1.52.41-.13.88-9.51-1,.07-2.93,1.1.09.33,1.82,4.62.63.59-5.24-3.08-.32-.4,1.52-1-.06.43-4.27,1,.07.06,1.65,3,.4.57-5.55-5.29-.4L293,634.31l-1.09-.5.87-3.23L303,631.71l-.13.88h-1.53Z" />
    <path d="M284.81,642.71l3.17.34,1.21-3.75,1.17.21-1,4.93-11.54-1.77.51-5,1.17.21,0,4,3.21.55,1.7-11.66-2.59-.59.13-.89,7,1.08-.13.88-2.41-.14Z" />
    <path d="M271.48,633.54l.88.13a2.59,2.59,0,0,0,1.1-1c.34-.52.92-1.18,1.44-1.95s1-1.37,1.29-1.8.56-.56.75-.51l2.52.47-.13.88-.74.11a1.14,1.14,0,0,0-.73.42,12.06,12.06,0,0,0-1.16,1.31,21.35,21.35,0,0,1-1.49,1.75,3,3,0,0,1-1.26.88,3.57,3.57,0,0,1,1.69,1.68,4.18,4.18,0,0,1,.25,2.51,3.47,3.47,0,0,1-1.86,2.76,7.42,7.42,0,0,1-3.89.08l-1.33-.36-1.33-.36-2.62-.5.13-.88,1.6.13,2.24-11.42-1.68-.55.13-.89,5.43,1.05-.14.88-1.78-.17-.9,4.85ZM268.94,640l1.43.38a3.33,3.33,0,0,0,2.29-.2,2.65,2.65,0,0,0,1.16-2,2.89,2.89,0,0,0-2.38-3.69,17.19,17.19,0,0,0-1.95-.32l-1.09,5.61Z" />
    <path d="M258.36,637.66l3.19.65,1.49-3.67,1.24.33-1.49,4.79-11.29-2.71.92-4.95,1.14.3-.36,4,3.14.84,2.67-11.5-2.54-.79.23-.85,7,1.67-.23.85-2.45-.35Z" />
    <path d="M246.36,622a5.52,5.52,0,0,1,1.42,3,9.19,9.19,0,0,1-.32,3.89,7.22,7.22,0,0,1-1.9,3.26,6.63,6.63,0,0,1-3,1.74,6.84,6.84,0,0,1-3.53-.13,17.66,17.66,0,0,1-3.2-1.37l-.54-.25,1.15-3.15,1.23.33-.23,2.38a1.88,1.88,0,0,0,.76.61,7,7,0,0,0,1.47.6,4.26,4.26,0,0,0,2.24,0,3.87,3.87,0,0,0,1.93-1.52,7.94,7.94,0,0,0,1.39-2.89,11.16,11.16,0,0,0,.46-3.24,5.55,5.55,0,0,0-.72-2.64,3.18,3.18,0,0,0-2.05-1.46,6.53,6.53,0,0,0-1.55-.31,1.87,1.87,0,0,0-1,.24l-1.22,1.51-1.09-.5,1.17-2.44a6.53,6.53,0,0,0,1.19.12c.5,0,.9,0,1.31,0a6.63,6.63,0,0,1,1.54.31A5.92,5.92,0,0,1,246.36,622Z" />
    <path d="M227.92,630l.32-.82,1.83.38,3.09-8.85L231,622.38l-7.21,4.49-.13.47,1.54.72-.32.83-4.84-1.7.32-.83,1.45.28,3.77-11-1.45-.69.33-.83,4.93,1.73-.32.83-1.64-.34-3.11,8.95,2-1.59,7.43-4.53.18-.67-1.64-.74.33-.83,4.93,1.73-.32.83-1.55-.31-3.76,11,1.35.67-.33.83Z" />
    <path d="M208.82,623l1.66-4.65,1.21.43-.9,3.73,3.74,1.61,4.36-11-3-1.41.32-.83,6.83,2.65-.32.83-2-.54-4.21,10.79,1.77,1-.32.83Z" />
    <path d="M206.28,620.65l1.21.84-.33.83-4.64-2.06.33-.83,1.52.4,2-4.54-6-2.64-2,4.55,1.3.86-.33.83-4.55-2,.33-.83,1.42.38,4.69-10.66-1.32-.76.32-.83,4.55,2-.32.83-1.5-.5-2.25,5,6,2.63,2.26-5-1.42-.79.33-.83,4.73,2.09-.32.82-1.4-.47Z" />
    <path d="M188.57,613.77l-1.8-.89,1.71-13.6-.94-.66.42-.8,4.4,2.19-.42.81-1.49-.5-.46,2.83,4.85,2.42,2-2.12-1.4-.88.42-.8,4,2-.42.81-1.12-.4Zm.25-3.2-.34,1.65,1.17-1.32,4.37-4.53-4.21-2.15Z" />
    <path d="M181.26,600a13.93,13.93,0,0,1,2.92-2.89,3.72,3.72,0,0,1,1.24-.48,2.88,2.88,0,0,1,1.24.33,7.14,7.14,0,0,1,1.13.71l-.57,1.38c-.26-.18-.61-.37-1.23-.74a.62.62,0,0,0-.57-.16,2.22,2.22,0,0,0-.67.23c-1.54.81-3.42,3.26-5.71,7.23l-.76,1.33,1.79,1.29-.41.81-9.39-5.27.42-.8,1.66.65L178,593.43l-1.56-1,.42-.81,5.06,2.78-.41.81-1.73-.77-5.66,10.1,3.28,1.79.82-1.51A26.9,26.9,0,0,1,181.26,600Z" />
    <path d="M153.21,593.29l.52-.78,1.63.75,6.21-9.85-1.35-1.07.52-.78,4.6,3-.51.78-1.54-.72-6.2,9.85,1.34,1.08-.52.77Zm12.82,1.6a5.54,5.54,0,0,1-2.41-2.78,3.66,3.66,0,0,1,.55-3.21,4.1,4.1,0,0,1,2.9-2.08,5.66,5.66,0,0,1,3.73.9c.17.15.36.2.52.34a1.37,1.37,0,0,0,.52.34c.59.47,1.11.81,1.53,1.13l2.17,1.4-.51.77-1.44-.69-6.21,9.85,1.16,1-.52.78-4.53-2.84L164,599l1.73.77,2.3-3.67Zm5.34-5.49a3.6,3.6,0,0,0-.87-.54,3.26,3.26,0,0,0-2.5-.57,3.76,3.76,0,0,0-2.08,1.69,3,3,0,0,0-.54,2.4,3.37,3.37,0,0,0,1.61,2l1.65,1,3.36-5.31A1.75,1.75,0,0,0,171.37,589.4Z" />
    <path d="M146.78,587.29l1,1.09-.52.78-4.07-3,.51-.78,1.42.79,3-4.08-5.28-3.86-3,4.08,1,1.09-.51.78-4-3,.52-.78,1.35.67,6.88-9.36-1.05-1,.51-.78,4.08,3-.52.78-1.32-.76-3.2,4.34,5.28,3.86,3.2-4.34-1.22-1.14.51-.78,4.18,3.05-.52.78-1.32-.76Z" />
    <path d="M130.94,576.83l-1.58-1.34L134,562.57l-.77-.93.58-.65,3.86,3.07-.61.75-1.3-.86-1,2.68,4.26,3.49,2.46-1.58-1.12-1.12.58-.66,3.44,2.76-.59.66-1.06-.6Zm1-3-.62,1.57,1.4-1,5.22-3.49-3.68-3Z" />
    <path d="M119.84,565.81l1.31,1.58-.59.65-3.66-3.42,3.76-8,1.18-2.13-2,1.4-7.59,4.38-3.59-3.3.58-.66,1.7,1.27,6.82-9.48-1.08-1.31.58-.65,3.9,3.69-.58.66-1.37-1-5,6.69-2.2,2.88,2.41-1.39,9-5,.89.85-3.84,8.64-1.61,3.34,2.69-2.43,6.3-5.65-1.27-1.36.59-.66,3.59,3.31-.58.66-1.27-.95Z" />
    <path d="M103.51,551.86l-1.43-1.5,6.12-12.21-.65-1,.68-.64,3.42,3.57-.68.63-1.27-1-1.4,2.58,3.85,3.88,2.6-1.34-1-1.28.67-.63,3.13,3.18-.68.63-1-.66Zm1.38-2.89-.81,1.52,1.54-.81,5.66-2.87-3.36-3.44Z" />
    <path d="M97.3,543.48l.79,1.23-.68.63-1.64-1.86c-.33-.3-.63-.68-1-1-.49-.43-1-1-1.36-1.38a6,6,0,0,1-1.8-3.54,3.92,3.92,0,0,1,1.48-2.86,4.72,4.72,0,0,1,2.36-1.2,4.55,4.55,0,0,1,2.57.28,6.1,6.1,0,0,1,2.29,1.73c.23.27.46.54.7.8s.37.51.47.54l3.07-2.75-1.58-2,.67-.63,4.08,4.55-.68.63-1.15-1Zm2.34-7.22a3.82,3.82,0,0,0-2.22-1.21,3.65,3.65,0,0,0-2.79,1.29,2.89,2.89,0,0,0-1.18,2.13,3.85,3.85,0,0,0,1.1,2.34c.24.26.57.55.9.84a2.05,2.05,0,0,1,.39.42l5-4.38C100.55,537.42,100.18,536.91,99.64,536.26Z" />
    <path d="M97.6,525.63a4.88,4.88,0,0,1-.58,3.31,9.4,9.4,0,0,1-2.44,3,6.74,6.74,0,0,1-3.39,1.64,6.08,6.08,0,0,1-3.48-.32,6.44,6.44,0,0,1-2.9-2.1A18.23,18.23,0,0,1,83,528.22l-.25-.57,2.68-2,.77.92-1.51,1.83a4.77,4.77,0,0,0,.25,1,13,13,0,0,0,.86,1.35,3.49,3.49,0,0,0,1.91,1.23,4.57,4.57,0,0,0,2.49-.15,8.3,8.3,0,0,0,2.77-1.6,9.89,9.89,0,0,0,2.16-2.37,5,5,0,0,0,.88-2.52,4,4,0,0,0-.8-2.35A6.93,6.93,0,0,0,94,521.82a1.21,1.21,0,0,0-.93-.35l-1.89.62-.65-1,2.28-1.33c.17.15.5.44.92.76s.78.51,1.11.81.63.67,1.13,1.11A5.11,5.11,0,0,1,97.6,525.63Z" />
    <path d="M67.13,507.07l.74-.51L69,508l7.82-5.24-2.74,0-8.44-.83-.38.3.71,1.51-.75.52-2.81-4.32.74-.51,1,1.09L73.89,494l-.74-1.42.74-.52,2.91,4.35-.74.51L75,495.63,67,500.94l2.55,0,8.63.89.6-.35L78,499.91l.75-.52,2.91,4.35-.75.51-1-1.18-9.67,6.47.64,1.39-.75.52Z" />
    <path
      d="M60.5,496.44c-.4-.41-.7-.8-1-1.09a7.09,7.09,0,0,1-.68-.9,7.62,7.62,0,0,1-1.2-3.48A2.38,2.38,0,0,1,59,488.71a3.29,3.29,0,0,1,2.56-.44,4.51,4.51,0,0,1,2.17,1.4,3.8,3.8,0,0,1-.57-2.8,3.56,3.56,0,0,1,1.47-2.06,3.7,3.7,0,0,1,3.3-.54,6.4,6.4,0,0,1,3,2.85,9,9,0,0,1,.85,1.75c.16.55.34,1,.45,1.35a1.54,1.54,0,0,1,.14.64l-2.91,1.36-.49-.84,1.77-1.67a4.52,4.52,0,0,0-.89-2.37,2.27,2.27,0,0,0-1.6-1.25,4.13,4.13,0,0,0-2.3.61,3.61,3.61,0,0,0-1.34,1.58,3,3,0,0,0,.58,2.39l.72,1.11-.87.58-.56-1a3.58,3.58,0,0,0-1-1.09,2.49,2.49,0,0,0-1.4-.48,3,3,0,0,0-1.65.47,2.39,2.39,0,0,0-1.22,1.51,3.22,3.22,0,0,0,.49,2,2.68,2.68,0,0,0,.94,1.06,1,1,0,0,0,.83.33l1.68-.57.65,1-2.37,1.6C61.23,497.14,61,496.88,60.5,496.44Z" />
    <path
      d="M53.16,482l.52,1.47-.82.39-1.22-2.26a14.18,14.18,0,0,0-.86-1.35,10.83,10.83,0,0,1-.73-1.11A7.69,7.69,0,0,1,49,475.53a2.91,2.91,0,0,1,1.59-2.12,3.41,3.41,0,0,1,2.35-.39,3.25,3.25,0,0,1,2,1.25,4.19,4.19,0,0,1-.54-2.9,3,3,0,0,1,1.65-2,3.54,3.54,0,0,1,3.32-.23c1.12.4,2.15,1.49,3.17,3.4.21.36.39.81.6,1.18a8.21,8.21,0,0,0,.81,1.54l1.16,2.14-.82.39-.89-1.25Zm3-5.1-.46-.94a2.68,2.68,0,0,0-1.55-1.43,3,3,0,0,0-2.13.34,2.78,2.78,0,0,0-1.41,1.46,3.51,3.51,0,0,0,.51,2.27l.7,1.21.21.36,4.62-2.43Zm5.66-4a4.47,4.47,0,0,0-2-2.06,2.51,2.51,0,0,0-2.32.3c-.84.48-1.37.95-1.46,1.64a3.75,3.75,0,0,0,.58,2.4c.63,1.08,1,1.78,1.16,2.14l4.89-2.66C62.52,474.47,62.27,473.89,61.81,473Z" />
    <path d="M44.66,468.15l-.93-1.87,9.62-9.65-.32-1.1.82-.39L56,459.59l-.82.39-.86-1.35-2.16,2,2.35,4.9,2.87-.45-.49-1.56.81-.39,1.89,4-.81.39-.66-1Zm2.16-2.37L45.49,467l1.72-.35,6.25-.87-2.1-4.34Z" />
    <path d="M52,452.41a6.11,6.11,0,0,1-1.41,3,9.66,9.66,0,0,1-3.14,2.22,7.37,7.37,0,0,1-3.73.63,6.83,6.83,0,0,1-3.25-1.18,6.73,6.73,0,0,1-2.2-2.83,19.66,19.66,0,0,1-.94-3.31l-.14-.65,3.17-1.18.51,1.15-2,1.4a2.65,2.65,0,0,0,0,1,7.32,7.32,0,0,0,.49,1.55,3.59,3.59,0,0,0,1.48,1.72,4.23,4.23,0,0,0,2.4.55,9.25,9.25,0,0,0,3.16-.79,10.1,10.1,0,0,0,2.8-1.69,4.49,4.49,0,0,0,1.52-2.24,3.06,3.06,0,0,0-.15-2.49,5.21,5.21,0,0,0-.77-1.32,1.69,1.69,0,0,0-.84-.64l-2,0-.32-1.11,2.61-.62a8,8,0,0,0,.66,1,11.63,11.63,0,0,1,.84,1,14.76,14.76,0,0,1,.74,1.42A6,6,0,0,1,52,452.41Z" />
    <path
      d="M35.84,440.23A6.34,6.34,0,0,1,33,439a5.44,5.44,0,0,1-1.67-2.48,5.26,5.26,0,0,1-.26-3.23,5.13,5.13,0,0,1,1.52-2.65,8.78,8.78,0,0,1,3-1.83,10.77,10.77,0,0,1,4-.68,6.35,6.35,0,0,1,3.16,1.16,6.2,6.2,0,0,1,2,2.56,6.45,6.45,0,0,1,.32,3.34,4.85,4.85,0,0,1-1.55,2.75,8.8,8.8,0,0,1-3.06,1.93l1.07,2.83,5.1-1.89-.38-1.63.89-.27,1.75,4.85L48,444l-.74-1.42-10.85,4,.31,1.51-.89.27L34,443.61l.89-.27.74,1.42L40.4,443l-1.07-2.84A7.28,7.28,0,0,1,35.84,440.23Zm-1.14-1.84a7.45,7.45,0,0,0,4.76-.66,8.31,8.31,0,0,0,3.72-2.46,3.21,3.21,0,0,0,.56-3.22,3.26,3.26,0,0,0-2.4-2.06,8.28,8.28,0,0,0-4.67.68A8.72,8.72,0,0,0,33,433a3,3,0,0,0-.53,3.12A2.93,2.93,0,0,0,34.7,438.39Z" />
    <path d="M34.05,419.17a30.22,30.22,0,0,1,2-2.52c.58-.66,1-1.15,1.34-1.57a1.94,1.94,0,0,0,.42-.81l0-.72.89-.27.73,2.23c.14.25-.09.7-.4,1.12a13.27,13.27,0,0,1-1.76,2c-.87,1-1.58,1.71-2,2.3s-.59,1.06-.48,1.4l.32,1.1,5.11-1.58-.26-1.7.89-.27,1.54,4.89-.89.27-.64-1.39-11.11,3.44.21,1.48-.88.27-1.47-4.77.88-.27.65,1.39,5.11-1.58-.5-1.56-6.29-2,.28,1.6-.89.27-1.35-4.43.88-.28.67,1.3,6.43,2.24A2.15,2.15,0,0,1,34.05,419.17Z" />
    <path d="M37,410.3a5.55,5.55,0,0,1-1.91,2.54,10,10,0,0,1-3.39,1.64,9.34,9.34,0,0,1-3.82.2,6,6,0,0,1-3-1.51,5.48,5.48,0,0,1-1.67-2.89,5.34,5.34,0,0,1,.68-4.81,7.93,7.93,0,0,1,4.51-2.76,9.57,9.57,0,0,1,3.91-.18,6.44,6.44,0,0,1,3.06,1.53,5.51,5.51,0,0,1,1.67,2.9A5.72,5.72,0,0,1,37,410.3Zm-10.66,2.13a8.4,8.4,0,0,0,4.73-.16,7.9,7.9,0,0,0,4-2.08,3.18,3.18,0,0,0,.84-3.13,3.28,3.28,0,0,0-2.32-2.36,8.71,8.71,0,0,0-4.83.14,7.83,7.83,0,0,0-4,2.08,3.18,3.18,0,0,0-.84,3.13A4.17,4.17,0,0,0,26.38,412.43Z" />
    <path
      d="M22.19,400.71l.09,1.56-.86.17L20.86,400c-.09-.43-.24-1-.4-1.53a8.5,8.5,0,0,1-.36-1.32,7,7,0,0,1,0-3.77,2.77,2.77,0,0,1,2.06-1.59,4,4,0,0,1,2.38.23,3.86,3.86,0,0,1,1.66,1.77,4,4,0,0,1,.17-2.91,2.8,2.8,0,0,1,2.13-1.46,3.68,3.68,0,0,1,3.28.67,6.47,6.47,0,0,1,2.08,4,5.69,5.69,0,0,1,.17,1.27c.15,1,.31,1.51.35,1.72l.58,2.4-.86.18-.52-1.47Zm4.24-4-.24-1a2.59,2.59,0,0,0-1.14-1.83,2.64,2.64,0,0,0-2.2-.18,2.25,2.25,0,0,0-1.71,1.07,3.9,3.9,0,0,0-.13,2.41,6.36,6.36,0,0,0,.36,1.32l.11.33,5.08-1.08A5.13,5.13,0,0,0,26.43,396.66Zm6.44-2.35a4.07,4.07,0,0,0-1.37-2.51,2.62,2.62,0,0,0-2.36-.32,2.28,2.28,0,0,0-1.83,1.14,3.54,3.54,0,0,0-.16,2.5c.29,1.2.47,2.06.58,2.39l5.41-1.19A6.52,6.52,0,0,0,32.87,394.31Z" />
    <path d="M15.72,372l1-.15.5,1.56,11.49-1.81-.05-1.74,1-.16.84,5.22-1,.15-.41-1.53-11.48,1.81,1,6,11.58-1.79,0-1.74.95-.15.75,5.19-1,.15-.42-1.44L18.9,383.33l0,1.63-1,.15Z" />
    <path d="M28.36,365.9a5.65,5.65,0,0,1-2.24,2.26,8.73,8.73,0,0,1-3.64,1.06,9.13,9.13,0,0,1-3.86-.43,5.88,5.88,0,0,1-2.74-2,6,6,0,0,1-1.21-3.08A5.5,5.5,0,0,1,16,359.13a7.85,7.85,0,0,1,4.93-2,9.15,9.15,0,0,1,3.86.42,6.54,6.54,0,0,1,2.83,2,6.5,6.5,0,0,1,.73,6.4Zm-10.85.56a8.73,8.73,0,0,0,4.74.56,7.84,7.84,0,0,0,4.28-1.51,3,3,0,0,0,1.31-3,3.29,3.29,0,0,0-1.94-2.66,8.54,8.54,0,0,0-4.73-.56,7.5,7.5,0,0,0-4.28,1.5,3,3,0,0,0-1.22,3A3,3,0,0,0,17.51,366.46Z" />
    <path d="M22.45,351.08a12,12,0,0,1,3.95.85,3.27,3.27,0,0,1,1,.78,3.64,3.64,0,0,1,.41,1.13,4.18,4.18,0,0,1-.05,1.31l-1.48.22c0-.31,0-.72,0-1.44a1,1,0,0,0-.26-.57,4.51,4.51,0,0,0-.58-.46c-1.52-.82-4.59-1.13-9.16-.83l-1.45.12-.06,2.12-.93.06-.68-10.77.93-.06.35,1.72L26,344.5l.08-1.81.93-.05.41,5.71-.93,0-.3-1.91-11.59.66.2,3.82,1.65-.06C18.82,350.92,20.76,350.93,22.45,351.08Z" />
    <path d="M14.28,340.13l-.22,1.57-.93.06-.2-9.53,2.94-.33,0,1-1.77.54,0,4.68,5.23-.13-.09-3.08-1.58-.22,0-1,4.3-.08,0,1-1.6.28,0,3.15,5.54-.14-.32-5.28-2.39-1,.3-1.14,3.24.46.18,10.34-.93.05-.19-1.57Z" />
    <path d="M14.06,324.59l.07,3.18,3.88.73,0,1.22-5-.42.26-11.64,5-.09,0,1.22-3.93.58-.15,3.22,11.77.2.21-2.7.9,0-.16,7.09-.91,0-.15-2.49Z" />
    <path d="M21.49,310.18l0,.91a3,3,0,0,0,1.15,1,20.18,20.18,0,0,0,2.13,1.18c.9.45,1.51.81,2,1s.69.48.64.67l-.16,2.51-.91,0-.11-.74c0-.22-.21-.36-.44-.63s-.78-.52-1.46-1a19.3,19.3,0,0,1-1.92-1.23,3.25,3.25,0,0,1-1-1.09,3.87,3.87,0,0,1-1.53,1.93,4.21,4.21,0,0,1-2.49.56,3.45,3.45,0,0,1-3.06-1.54,6.66,6.66,0,0,1-.6-3.83c0-.4.11-.78.17-1.38s.18-1.07.16-1.38l.21-2.69.91,0,.09,1.55,11.61.77.27-1.76.91,0-.36,5.5-.9,0,0-1.83-5-.33Zm-6.77-1.71a5.33,5.33,0,0,0-.19,1.47,3,3,0,0,0,.51,2.28,3,3,0,0,0,2.2.9,3.64,3.64,0,0,0,2.4-.58,3.11,3.11,0,0,0,1-2.18,9.3,9.3,0,0,0,0-2L15,307.92Z" />
    <path d="M15.66,297.72l-.24,3.19,3.8,1-.12,1.19-5-.82,1.27-11.58,5,.33-.11,1.19-3.92.17-.46,3.24,11.67,1.29.5-2.61.88.13-.79,7.12-.88-.13,0-2.43Z" />
    <path d="M29.79,283.78A5.94,5.94,0,0,1,27,285.57a8.26,8.26,0,0,1-3.79.11,7.77,7.77,0,0,1-3.49-1.45,6.62,6.62,0,0,1-2.1-2.8,6.51,6.51,0,0,1-.27-3.54,14,14,0,0,1,1-3.3l.25-.54,3.28.67L21.59,276l-2.46.06a3.6,3.6,0,0,0-.54.87,4.24,4.24,0,0,0-.41,1.52,3.94,3.94,0,0,0,.32,2.23,4.29,4.29,0,0,0,1.76,1.79,8.31,8.31,0,0,0,3.09,1,10.73,10.73,0,0,0,3.24.06,5.36,5.36,0,0,0,2.53-1.06,3.45,3.45,0,0,0,1.2-2.22,8.6,8.6,0,0,0,.1-1.5,2.32,2.32,0,0,0-.34-1l-1.65-1.05.3-1.15,2.52.88a3.39,3.39,0,0,0,.1,1.15c.08.43,0,.93.14,1.36a5.65,5.65,0,0,1-.12,1.6A8.53,8.53,0,0,1,29.79,283.78Z" />
    <path d="M19.55,266.47l.88.14-.17,1.79,9.16,1.94-1.93-1.94-5.35-6.63-.48-.13-.53,1.59-.88-.13,1-5,.88.13-.09,1.51,11.36,2.43.51-1.5.85.23L33.74,266l-.86-.23.15-1.69-9.35-2,1.86,1.82L31,270.65l.67.18.55-1.68.88.13L32,274.39l-.88-.13.12-1.6-11.37-2.43-.48,1.4-.88-.14Z" />
    <path d="M24.13,246.72l4.81,1.08L28.6,249l-3.76-.4-1.16,4,11.45,2.86,1-3.08.86.23-1.79,7.05-.86-.23.35-2-11.27-2.82-.7,1.85-.85-.23Z" />
    <path d="M26.11,243.89l-.66,1.35-.86-.23,1.52-4.89.85.23-.22,1.57,4.8,1.49,1.9-6.32-4.8-1.49L28,237l-.85-.23,1.49-4.79.85.23-.19,1.47L40.38,237l.57-1.38.86.23-1.49,4.8-.86-.23.32-1.55L34.6,237.3l-1.9,6.32,5.18,1.59.6-1.47.85.23-1.51,4.89-.86-.23.29-1.45Z" />
    <path d="M30.65,225.45l.72-1.95H45l.6-1.06.82.32-1.65,4.65-.83-.32.31-1.55-2.93-.07-1.78,5.12,2.29,1.74.69-1.45.83.33-1.43,4.2-.83-.33.21-1.16Zm3.27,0-1.69-.15,1.46,1,5,3.78,1.61-4.46Z" />
    <path d="M43.54,216.47A12.65,12.65,0,0,1,46.75,219a4.38,4.38,0,0,1,.6,1.18,2.49,2.49,0,0,1-.12,1.19,8.68,8.68,0,0,1-.61,1.16l-1.4-.47c.17-.26.3-.74.54-1.28.05-.19.13-.48.06-.6a2.4,2.4,0,0,0-.32-.7c-1-1.4-3.67-3-7.92-4.67l-1.37-.57-1,1.87-.83-.32,4-10,.83.32-.46,1.71,10.76,4.31.84-1.6.83.32L49,216.11l-.83-.32.51-1.9L38,209.58l-1.45,3.48,1.57.63C40.23,214.77,42.06,215.57,43.54,216.47Z" />
    <path d="M46.55,200.68A5.21,5.21,0,0,1,49,198a3.85,3.85,0,0,1,3.22.15,4.29,4.29,0,0,1,2.44,2.69,5.2,5.2,0,0,1-.5,3.74c-.05.19-.19.36-.24.55a4.84,4.84,0,0,0-.37.61,16.29,16.29,0,0,0-.87,1.71l-1,2.27-.81-.42.5-1.49-10.58-5-.86,1.3-.8-.42,2.2-4.81.81.42-.58,1.78,3.88,1.86Zm0-12.94.8.42-.55,1.69,10.49,5,.9-1.49.81.42-2.35,5-.81-.42.56-1.68-10.49-4.95L45,193.13l-.8-.41Zm6.17,17.65a9.62,9.62,0,0,0,.44-.9,3.19,3.19,0,0,0,.19-2.6,3.52,3.52,0,0,0-2-1.85,3.32,3.32,0,0,0-2.48-.25,3.56,3.56,0,0,0-1.7,1.78l-.77,1.73L52.17,206A2.7,2.7,0,0,0,52.73,205.39Z" />
    <path d="M51.62,180.64l-.93,1.18-.8-.42,2.5-4.42.81.42-.6,1.47,4.45,2.41,3.17-5.76-4.44-2.42-.93,1.18-.8-.42,2.38-4.35.81.42-.48,1.4L67,177l.93-1.18.8.42-2.41,4.45-.81-.42.6-1.47-4.8-2.61L58.09,182l4.8,2.61,1-1.37.81.42-2.54,4.52-.8-.42.57-1.38Z" />
    <path d="M60,163.65l1.08-1.75,13.36,3,.76-.92.78.52-2.65,4.18-.78-.52.69-1.44-2.85-.76-2.87,4.63,1.85,2.22,1-1.25.77.52L68.9,175.8l-.77-.51.49-1.09Zm3.09.63-1.61-.44,1.19,1.24,4.12,4.77,2.5-4Z" />
    <path d="M69.61,151.14l-1.34,1.58-.78-.52,2.91-4,8.33,2.74,2.3.93L79.39,150,74,143,77,139l.78.51-1,1.78,10.34,5.52,1.14-1.23.78.52-3.23,4.43L85,150l.81-1.52-7.33-4.2-3.19-1.77,1.75,2.2,6.14,8.26-.69,1-9-2.73-3.56-1.16,2.72,2.36L79,157.93l1.19-1.41L81,157,78.18,161l-.78-.51.78-1.42Z" />
    <path d="M81.31,133.29l1.25-1.6,13,4.49.83-.8.75.61L94,139.86l-.75-.61.85-1.3-2.68-1-3.39,4.29,1.61,2.37,1.12-1.13.75.61-2.75,3.44-.76-.61.59-1.07Zm3,.91-1.57-.62,1.06,1.4,3.49,5.22,2.92-3.7Z" />
    <path d="M88.86,126.05,87.7,127l-.76-.61,1.63-1.91a6,6,0,0,0,.79-1c.43-.49.78-1,1.21-1.51a6.4,6.4,0,0,1,3.26-2.28,3.65,3.65,0,0,1,3,1.1A4.66,4.66,0,0,1,98.34,123a4.46,4.46,0,0,1,0,2.56A5.68,5.68,0,0,1,97,128c-.27.24-.47.59-.73.82s-.42.4-.44.5L99,132l1.8-1.76.66.58-4,4.63-.65-.58.85-1.3Zm7.47,1.39a3.37,3.37,0,0,0,.85-2.42,4.39,4.39,0,0,0-1.63-2.68,2.82,2.82,0,0,0-2.29-.92A3.93,3.93,0,0,0,91,122.86c-.3.33-.49.69-.79,1s-.29.33-.31.43L95,128.61A4.28,4.28,0,0,0,96.33,127.44Z" />
    <path d="M106.69,124.1a6,6,0,0,1-3.34-.08,9.12,9.12,0,0,1-3.23-2,8.17,8.17,0,0,1-2.1-3.21,6.75,6.75,0,0,1-.18-3.51,6.28,6.28,0,0,1,1.75-3.1,14.69,14.69,0,0,1,2.74-2.22l.5-.38,2.3,2.45-.85.9-2.1-1.28a3.17,3.17,0,0,0-.92.37,6.61,6.61,0,0,0-1.18,1,3.39,3.39,0,0,0-.94,2,4.76,4.76,0,0,0,.46,2.47,9.31,9.31,0,0,0,2,2.56,9.5,9.5,0,0,0,2.67,1.83,4.71,4.71,0,0,0,2.61.5,3.83,3.83,0,0,0,2.24-1.13,10.49,10.49,0,0,0,.93-1.18,1.67,1.67,0,0,0,.25-.95l-.83-1.85.92-.77L112,118.7a5.41,5.41,0,0,0-.59,1.07c-.22.45-.42.8-.62,1.16a7.12,7.12,0,0,1-1,1.27A9.32,9.32,0,0,1,106.69,124.1Z" />
    <path d="M117.76,94.58l.64.68-1.2,1.41,6.28,7-.38-2.75-.38-8.46-.31-.39L121,93l-.64-.68,3.88-3.44.63.68L124,90.74l7.75,8.7,1.25-.88.64.67-3.88,3.45-.63-.68,1.14-1.22-6.35-7.1.44,2.56.33,8.64.47.54,1.4-1,.63.68-3.9,3.53-.63-.68,1-1.15-7.75-8.7-1.24.79-.63-.67Z" />
    <path
      d="M127.44,86.58c.32-.43.64-.85.93-1.18a8.69,8.69,0,0,1,.83-.8,6.94,6.94,0,0,1,3.29-1.66A2.67,2.67,0,0,1,135,84a3.13,3.13,0,0,1,.77,2.44,4.76,4.76,0,0,1-1,2.37,3.67,3.67,0,0,1,2.68-.91,2.88,2.88,0,0,1,2.23,1.21,4,4,0,0,1,1,3.22,6,6,0,0,1-2.42,3.32,9.2,9.2,0,0,1-1.62,1.09,7,7,0,0,1-1.27.58c-.34.11-.55.16-.58.25l-1.81-2.73.77-.6,1.93,1.53a5.07,5.07,0,0,0,2.26-1.22,2.23,2.23,0,0,0,1-1.78,3.2,3.2,0,0,0-.94-2.18,2.48,2.48,0,0,0-1.75-1.08,3.39,3.39,0,0,0-2.38.89l-1,.84-.7-.8.8-.7a3.58,3.58,0,0,0,.93-1.18,2.58,2.58,0,0,0,.28-1.45,3.29,3.29,0,0,0-.71-1.52,2.08,2.08,0,0,0-1.68-1,3.51,3.51,0,0,0-1.83.74c-.41.4-.7.72-1,1.05a.92.92,0,0,0-.23.86l.81,1.54-.92.77-2-2.16A6.21,6.21,0,0,0,127.44,86.58Z" />
    <path
      d="M140.63,77.28l-1.42.74-.51-.75,2-1.5c.36-.2.77-.6,1.28-1a6.63,6.63,0,0,1,1-.84,5.92,5.92,0,0,1,3.46-1.51,3,3,0,0,1,2.32,1.23,3.89,3.89,0,0,1,.7,2.32,3.35,3.35,0,0,1-1,2.18,4,4,0,0,1,2.81-1,2.87,2.87,0,0,1,2.2,1.31,4,4,0,0,1,.75,3.25c-.21,1.17-1.23,2.32-2.9,3.61a9.85,9.85,0,0,1-1.11.72c-.84.49-1.25.88-1.47.93l-2,1.49-.51-.75,1.09-1Zm5.4,2.26.87-.58a2.46,2.46,0,0,0,1.18-1.73,3.34,3.34,0,0,0-.66-2.11A2.27,2.27,0,0,0,145.79,74a3.34,3.34,0,0,0-2.16.85,7.6,7.6,0,0,0-1,.84l-.27.24,3.06,4.18C145.29,80.05,145.65,79.84,146,79.54Zm4.79,4.95a3.78,3.78,0,0,0,1.73-2.29,3.21,3.21,0,0,0-.6-2.3,2.88,2.88,0,0,0-1.8-1.29,3.25,3.25,0,0,0-2.28.91c-1,.75-1.64,1.19-1.91,1.43l3.27,4.54A10.75,10.75,0,0,0,150.82,84.49Z" />
    <path d="M153.19,66.89l1.74-1.16L165.87,74l1-.53.52.75-4.11,2.77-.51-.75,1.19-1-2.26-1.83-4.59,3,.79,2.76,1.42-.74.51.75-3.71,2.46-.52-.75.83-.79Zm2.67,1.84-1.34-1.08.56,1.68,1.74,6.07,4-2.61Z" />
    <path d="M169.77,71.94a6.4,6.4,0,0,1-3.21-1,10,10,0,0,1-2.6-2.83,8.68,8.68,0,0,1-1.18-3.58,5.9,5.9,0,0,1,.79-3.35,7.25,7.25,0,0,1,2.53-2.58,17.39,17.39,0,0,1,3.22-1.38l.58-.25,1.55,3-1.09.62-1.66-1.77a3.33,3.33,0,0,0-1,.15,5.21,5.21,0,0,0-1.39.65,3.39,3.39,0,0,0-1.46,1.65,4.45,4.45,0,0,0-.26,2.47,7.78,7.78,0,0,0,1.24,3,11,11,0,0,0,2.08,2.5,6.48,6.48,0,0,0,2.41,1.25,3.09,3.09,0,0,0,2.47-.46A3.48,3.48,0,0,0,174,69.1a1.89,1.89,0,0,0,.54-.87l-.28-2,1.06-.53,1,2.5a2.78,2.78,0,0,0-.82.79,8.07,8.07,0,0,1-1,1,5.47,5.47,0,0,1-1.26.88A5.76,5.76,0,0,1,169.77,71.94Z" />
    <path
      d="M179.51,54.18a6.76,6.76,0,0,1,.91-3,5.81,5.81,0,0,1,2.19-2.06,5.55,5.55,0,0,1,3.16-.79,4.76,4.76,0,0,1,2.84,1.17,13.22,13.22,0,0,1,2.32,2.76,8.7,8.7,0,0,1,1.2,3.89,5.54,5.54,0,0,1-.68,3.28,5.81,5.81,0,0,1-2.23,2.25,5.55,5.55,0,0,1-6.13-.31,8.1,8.1,0,0,1-2.31-2.76L178.15,60l2.59,4.77,1.49-.62.4.82-4.53,2.45-.39-.81,1.25-.89-5.51-10.24L172,56l-.49-.84,4.41-2.39.49.84-1.26.89L177.53,59l2.72-1.41A6.9,6.9,0,0,1,179.51,54.18Zm1.77-1.25a7.78,7.78,0,0,0,1.3,4.62,8.28,8.28,0,0,0,3,3.35,3.3,3.3,0,0,0,3.34.08,2.93,2.93,0,0,0,1.64-2.72,9.6,9.6,0,0,0-1.33-4.53,8.41,8.41,0,0,0-2.88-3.32,3.31,3.31,0,0,0-3.22-.15A3.16,3.16,0,0,0,181.28,52.93Z" />
    <path d="M200.24,49.45c.71.39,1.58.93,2.74,1.55a18.72,18.72,0,0,0,1.75,1.08c.45.22.64.27.85.23l.75-.11.39.82-2.1,1c-.24.14-.62,0-1.16-.21a16.3,16.3,0,0,1-2.17-1.4,27.05,27.05,0,0,0-2.5-1.69,1.8,1.8,0,0,0-1.46-.29l-1.05.53,2.28,4.79,1.56-.5.39.82-4.67,2.21-.39-.81,1.33-.77-4.94-10.49-1.43.43-.4-.82,4.55-2.14.39.82-1.35.86,2.26,4.88,1.42-.74L198.41,43l-1.56.5-.39-.82,4.19-1.93.39.82-1.23.79L198.43,49A5.59,5.59,0,0,1,200.24,49.45Z" />
    <path d="M209.44,51.2a4.86,4.86,0,0,1-2.74-1.55,9.65,9.65,0,0,1-2.09-3.21,8,8,0,0,1-.73-3.75,6.41,6.41,0,0,1,1.06-3.18,5.86,5.86,0,0,1,2.59-2.06,5.67,5.67,0,0,1,4.8,0,7.41,7.41,0,0,1,3.39,4.07,8.36,8.36,0,0,1,.7,3.85,6.87,6.87,0,0,1-1.08,3.28,6,6,0,0,1-2.59,2A5,5,0,0,1,209.44,51.2Zm-3.6-10.13a9.32,9.32,0,0,0,.78,4.69,8.31,8.31,0,0,0,2.69,3.68,3,3,0,0,0,3.26.36,3.2,3.2,0,0,0,2-2.61,8.28,8.28,0,0,0-.88-4.72A8.2,8.2,0,0,0,211,38.8a3.24,3.24,0,0,0-3.27-.37A3.47,3.47,0,0,0,205.84,41.07Z" />
    <path
      d="M216.8,35.15l-1.51.31-.27-.89,2.38-.89a9.57,9.57,0,0,0,1.49-.62,4.91,4.91,0,0,1,1.25-.48,6.49,6.49,0,0,1,3.71-.54,2.64,2.64,0,0,1,1.85,1.82,3.25,3.25,0,0,1,.08,2.37,3.66,3.66,0,0,1-1.51,1.83,4.72,4.72,0,0,1,2.92-.23A2.75,2.75,0,0,1,229,39.74a3.92,3.92,0,0,1-.18,3.32,9.5,9.5,0,0,1-5,3c-.89.27-1.46.52-1.68.57l-2.38.89-.3-.79,1.43-.74Zm4.62,3.68,1-.34a2.66,2.66,0,0,0,1.6-1.41,2.51,2.51,0,0,0-.14-2.17,2.66,2.66,0,0,0-1.31-1.58,3.51,3.51,0,0,0-2.38.18c-.46.18-.82.39-1.28.57l-.36.21,1.85,4.88A6.62,6.62,0,0,1,221.42,38.83Zm3.17,6a4.13,4.13,0,0,0,2.29-1.73,2.76,2.76,0,0,0,0-2.43A2.84,2.84,0,0,0,225.54,39a3.19,3.19,0,0,0-2.51.24c-1.22.39-1.92.71-2.25.82l2,5.21C223,45.47,223.67,45.24,224.59,44.87Z" />
    <path d="M244.33,24.8l.27.89-1.42.74,3.34,11.08,1.73-.35.27.88-5,1.52-.27-.89,1.39-.64-3.41-11.21-5.76,1.72,3.42,11.2,1.72-.35.27.89-5,1.51-.27-.89,1.4-.64-3.35-11.08-1.6.28-.27-.89Z" />
    <path d="M252.13,36.36a5.55,5.55,0,0,1-2.55-1.9A9.28,9.28,0,0,1,248.06,31a9.38,9.38,0,0,1-.17-3.92,6,6,0,0,1,1.51-3,5.48,5.48,0,0,1,2.89-1.67,5.34,5.34,0,0,1,4.81.68,7.77,7.77,0,0,1,2.74,4.6,9.78,9.78,0,0,1,.17,3.92,5.48,5.48,0,0,1-1.63,3,6.83,6.83,0,0,1-2.89,1.67A5.21,5.21,0,0,1,252.13,36.36ZM250,25.71a8.45,8.45,0,0,0,.16,4.72,7.86,7.86,0,0,0,2.08,4,3.19,3.19,0,0,0,3.14.84A3.13,3.13,0,0,0,257.72,33a8.66,8.66,0,0,0-.13-4.82,7.93,7.93,0,0,0-2.08-4,3.21,3.21,0,0,0-3.14-.84A4.14,4.14,0,0,0,250,25.71Z" />
    <path d="M266.05,28.48a9.67,9.67,0,0,1-.37,4.08,2.46,2.46,0,0,1-.72,1.13,2.31,2.31,0,0,1-1.06.53,7,7,0,0,1-1.26.17L262.21,33a12.67,12.67,0,0,0,1.39-.24,1,1,0,0,0,.57-.25,1.35,1.35,0,0,0,.37-.62c.65-1.65.44-4.67-.49-9.19l-.33-1.42-2.2.23-.18-.86,10.56-2.16.18.86-1.68.57,2.34,11.42,1.89-.21.17.87-5.6,1.14-.18-.86,1.9-.61-2.34-11.43-3.66.75.37,1.63C265.61,24.8,265.89,26.81,266.05,28.48Z" />
    <path d="M275.67,18.83h-1.53l-.15-.95,9.38-1.56.76,2.85-1.05.12-.85-1.75-4.55.61.85,5.22,3.11-.59V21.25l1.05-.13.69,4.26-1.05.13-.5-1.56-3.08.5.86,5.52,5.17-1,.57-2.5,1.16.21,0,3.27-10.21,1.64-.18-.86,1.53-.4Z" />
    <path d="M291.08,16.44l-3.19.48-.13,3.93-1.27.17-.3-5,11.57-1.38.83,4.91-1.15.1-1.1-3.86-3.23.25,1.45,11.7,2.68-.1.05.93-7.05.86-.06-.93,2.37-.49Z" />
    <path
      d="M306.36,21.76l-.94.06a3.82,3.82,0,0,0-.83,1.2,16.15,16.15,0,0,0-.82,2.33c-.35.92-.53,1.59-.75,2s-.4.71-.61.76l-2.51.24-.06-.93.67-.23c.22,0,.36-.21.56-.56a13.86,13.86,0,0,0,.74-1.63c.33-.83.72-1.54,1-2.09a3.57,3.57,0,0,1,1-1.15,3.31,3.31,0,0,1-2.13-1.18,4.1,4.1,0,0,1-.89-2.38,3.53,3.53,0,0,1,1.06-3.18,6.52,6.52,0,0,1,3.77-1.13,7.94,7.94,0,0,1,1.43,0c.62,0,1,0,1.33-.05l2.71-.2.05.94-1.51.31.91,11.44,1.71.05.06.94-5.52.45-.06-.93,1.82-.33-.39-5Zm.76-7c-.6-.05-1,0-1.53,0a3.49,3.49,0,0,0-2.13.75,2.48,2.48,0,0,0-.62,2.28,3.52,3.52,0,0,0,.92,2.29,3.3,3.3,0,0,0,2.28.61c1,0,1.67-.16,2-.18l-.4-5.71Z" />
    <path d="M317.84,14.25l-3.22.25-.55,3.93-1.24.07.13-5.05L324.59,13l.4,5h-1.12l-.8-3.88-3.27,0L320.2,26l2.62.09.06.93-7.09.24-.06-.93,2.42-.27Z" />
    <path d="M333.68,26.23a6.58,6.58,0,0,1-2.18-2.52,8.65,8.65,0,0,1-.72-3.76,8.38,8.38,0,0,1,1-3.7,5.69,5.69,0,0,1,2.48-2.4,7,7,0,0,1,3.47-.8,16.25,16.25,0,0,1,3.43.51l.57.16-.3,3.38-1.22,0-.39-2.35a2.18,2.18,0,0,0-.89-.44,9.87,9.87,0,0,0-1.58-.22,3.46,3.46,0,0,0-2.11.66,5.27,5.27,0,0,0-1.53,1.93,9.33,9.33,0,0,0-.65,3.19,10.28,10.28,0,0,0,.37,3.15,5.08,5.08,0,0,0,1.42,2.32,3.55,3.55,0,0,0,2.3.92,8.17,8.17,0,0,0,1.55-.09,2.84,2.84,0,0,0,.94-.46l.79-1.83,1.17.21-.5,2.62c-.31,0-.64.13-1.17.19a6.32,6.32,0,0,1-1.29.27,13.14,13.14,0,0,1-1.56.09A6.08,6.08,0,0,1,333.68,26.23Z" />
    <path d="M349.28,13.61l0,.9-1.87.11L346.7,24l1.71-2.19,5.83-6.17,0-.51-1.64-.33,0-.91,5.1.35,0,.91-1.46.11-.77,11.61,1.55.32,0,.9-5.19-.37,0-.91,1.65-.07.62-9.51-1.57,2-5.95,6.25-.08.69,1.76.27,0,.9L343,27l0-.9,1.55-.1.77-11.61-1.45-.28,0-.91Z" />
    <path d="M369.56,15.47l-.39,4.89-1.29-.14-.1-3.8-4.12-.59L362.34,27.6l3.21.55-.13.88-7.31-.84.13-.88,2,0,1.24-11.49-1.9-.51.14-.88Z" />
    <path d="M372.71,17l-1.4-.48.13-.88,5,.73-.13.88-1.62,0-.73,5,6.45,1,.73-5-1.5-.5.14-.88,5,.73-.14.88h-1.52l-1.75,11.45,1.43.39-.14.88-5-.73.14-.88h1.52l.83-5.38-6.45-1-.83,5.38,1.62.44-.13.88-5.1-.76.14-.88h1.52Z" />
    <path d="M391.53,19l2,.44L395.42,33l1.12.4-.14.88-4.82-1,.13-.88,1.6.12L393,29.59l-5.31-1.12-1.4,2.58,1.49.51-.13.88-4.35-.86.13-.89,1.22,0Zm.59,3.11L392,20.46,391.24,22l-3,5.51,4.64.93Z" />
    <path d="M402.22,30.44A11.27,11.27,0,0,1,400.16,34a3,3,0,0,1-1.11.72,2.12,2.12,0,0,1-1.22,0,5.14,5.14,0,0,1-1.3-.45l.19-1.48,1.33.36a1.33,1.33,0,0,0,.62,0c.21,0,.36-.21.63-.44,1.23-1.2,2.5-4,3.6-8.51l.38-1.42-2-.54.25-.95,10.51,2.61-.26.95L410,24.58l-2.81,11.26,1.75.68-.22.85L403.08,36l.23-.86,1.95.32,2.82-11.27-3.73-.89-.44,1.61A37.11,37.11,0,0,1,402.22,30.44Z" />
    <path d="M418.29,31.28a5.75,5.75,0,0,1,3,2,3.54,3.54,0,0,1,.26,3.23,4.21,4.21,0,0,1-2.27,2.75,5.5,5.5,0,0,1-3.79.11l-.57-.16a1.92,1.92,0,0,1-.64-.27c-.64-.27-1.31-.45-1.85-.7L410,37.51l.23-.85,1.55.31,3.38-11.11-1.35-.67.23-.85,5.08,1.56-.23.86-1.85-.3-1.31,4.13ZM414.46,38c.19.06.54.25.92.35a3.22,3.22,0,0,0,2.58-.12,3.28,3.28,0,0,0,1.49-2.15,3,3,0,0,0-.15-2.48,3.74,3.74,0,0,0-2.05-1.47l-1.8-.48-1.82,6C414,37.77,414.27,37.94,414.46,38Zm16.63-8.47-.23.85-1.76-.27-3.39,11.11,1.64.75-.23.85-5.27-1.61.23-.86,1.73.37,3.39-11.12-1.64-.74.23-.86Z" />
    <path d="M438.78,33.51l-1.32-.76.32-.83,4.72,1.77-.32.83-1.55-.31-1.77,4.72L445,41.3l1.78-4.72-1.33-.76.33-.83,4.72,1.77-.33.83-1.45-.28-4.14,10.91,1.35.66-.33.83-4.72-1.77.33-.83,1.52.41,2-5.08-6.19-2.37-2,5.07,1.42.79-.33.83-4.79-1.89.33-.83,1.52.41Z" />
    <path d="M456.77,39.35l1.92.82-1,13.68.95.66-.33.83-4.55-2,.33-.83,1.49.5L456,50l-5-2.16L449,50l1.42.79-.33.82L446,49.81l.33-.83,1.14.31Zm0,3.25.24-1.67-1.07,1.34L451.77,47l4.39,1.88Z" />
    <path d="M470.48,47.1l-1.72-1.18.42-.8,4.38,2.29-1.51,8.66-.54,2.41,1.6-1.81,6.17-6.3,4.38,2.3-.42.8-1.95-.72-4.05,10.93,1.37,1-.42.8L473.46,63l.42-.8,1.57.62L478.56,55l1.32-3.42-2,2-7.24,7.23-1.06-.59,1.49-9.38.66-3.59-1.94,3-4.56,7.13,1.56,1-.42.8L462.13,57l.42-.8,1.47.6Z" />
    <path d="M489.85,56.16l1.75,1.08L489,70.7l.94.66-.41.81-4.24-2.46.42-.8,1.47.59.65-2.78L483.18,64l-2.16,2,1.28,1-.42.8-3.78-2.23.42-.81,1.11.4Zm-.43,3.14.43-1.61-1.24,1.19-4.7,4.24,4.14,2.44Z" />
    <path d="M498.12,62.55l-1.06-1,.52-.78,2.07,1.37c.36.19.78.51,1.14.71.61.37,1.16.61,1.68,1,1.46,1,2.42,2,2.67,2.95a3.86,3.86,0,0,1-.63,3.1,4.56,4.56,0,0,1-2,1.8A4.25,4.25,0,0,1,500,72a7.15,7.15,0,0,1-2.68-1,4.92,4.92,0,0,1-1-.66,1.45,1.45,0,0,1-.58-.47l-2.26,3.47,2,1.56-.52.78-5.12-3.31.51-.77,1.45.69Zm-.32,7.66a3.26,3.26,0,0,0,2.5.56,3.73,3.73,0,0,0,2.37-2,3,3,0,0,0,.54-2.4,4.13,4.13,0,0,0-1.71-2c-.35-.19-.71-.39-1.16-.61a1.72,1.72,0,0,0-.45-.22l-3.62,5.54A12.86,12.86,0,0,0,497.8,70.21Z" />
    <path d="M502.53,79.93a5.77,5.77,0,0,1-.35-3.25,9.39,9.39,0,0,1,1.56-3.56,8,8,0,0,1,2.81-2.5,6.53,6.53,0,0,1,6.75.68,15.64,15.64,0,0,1,2.53,2.31l.5.44-2.12,2.59-1-.69,1-2.17a4.06,4.06,0,0,0-.49-.85,4.22,4.22,0,0,0-1.24-1.05,3.69,3.69,0,0,0-2.16-.68,4.11,4.11,0,0,0-2.36.8,9.34,9.34,0,0,0-2.23,2.25,13.08,13.08,0,0,0-1.48,2.87,4.84,4.84,0,0,0-.12,2.71,3.5,3.5,0,0,0,1.5,2,5.64,5.64,0,0,0,1.32.77,3.07,3.07,0,0,0,1,.16l1.71-1.07.89.85-1.94,1.92c-.26-.17-.64-.27-1.09-.49s-.83-.33-1.31-.46a14.2,14.2,0,0,1-1.32-.76A8.51,8.51,0,0,1,502.53,79.93Z" />
    <path d="M529.79,83.87l-.61.75-1.56-1-5.92,7.27,2.66-.81,8.29-1.65L533,88l-1.1-1.21.61-.75,4,3.31-.61.75-1.33-.76-7.4,9,1.12,1.11-.58.66-4-3.31.58-.66,1.39.88,6.05-7.34-2.45.77-8.5,1.69-.44.5,1.2,1.24-.59.65-4.09-3.34.58-.65,1.3.85,7.41-9-1-1.09.61-.76Z" />
    <path
      d="M539.27,92.22a13.84,13.84,0,0,1,1.23.73c.35.2.68.49.94.66a6.45,6.45,0,0,1,2.14,3,2.58,2.58,0,0,1-.68,2.57,3,3,0,0,1-2.34,1.11,3.79,3.79,0,0,1-2.47-.67,4.37,4.37,0,0,1,1.37,2.51,3.07,3.07,0,0,1-.83,2.32,3.67,3.67,0,0,1-3,1.43c-1.12,0-2.28-.61-3.69-1.8a7.3,7.3,0,0,1-1.34-1.48c-.37-.51-.58-.87-.81-1.14l-.35-.6,2.42-2.2.66.58-1.18,2.13a5.51,5.51,0,0,0,1.49,2,2.25,2.25,0,0,0,2,.72,3.29,3.29,0,0,0,2-1.2,3.06,3.06,0,0,0,.82-1.92,2.84,2.84,0,0,0-1.25-2.17l-1-.88.71-.73.82.73a4.14,4.14,0,0,0,1.32.77,2.68,2.68,0,0,0,2.91-1,2.08,2.08,0,0,0,.7-1.85,2.59,2.59,0,0,0-1.07-1.71,3.91,3.91,0,0,0-1.21-.83,1.18,1.18,0,0,0-.88-.13l-1.4,1-.92-.76,1.83-2.26A4.5,4.5,0,0,0,539.27,92.22Z" />
    <path
      d="M550.41,103.86l-.89-1.26.68-.63,1.76,1.8c.33.29.73.7,1.22,1.14l1,.87c1.2,1.24,1.94,2.26,2,3.19a2.67,2.67,0,0,1-.85,2.42,3.89,3.89,0,0,1-2.12,1.06,3.49,3.49,0,0,1-2.38-.64,4,4,0,0,1,1.44,2.63,3,3,0,0,1-1,2.39,3.79,3.79,0,0,1-3.07,1.22,7.19,7.19,0,0,1-4-2.29,11.7,11.7,0,0,1-.86-.94c-.64-.68-1-1.1-1.2-1.24l-1.76-1.8.68-.63,1.27.95ZM544.87,115a4,4,0,0,0,2.49,1.38,3,3,0,0,0,2.19-1,2.65,2.65,0,0,0,.94-2,3.76,3.76,0,0,0-1.26-2.16c-.89-.85-1.45-1.41-1.69-1.68l-3.91,3.94A9.06,9.06,0,0,0,544.87,115Zm4.23-5.49.72.7a2.35,2.35,0,0,0,3.8-.1,2.57,2.57,0,0,0,.89-1.8,3.47,3.47,0,0,0-1.18-2c-.33-.29-.66-.58-1.09-.9l-.32-.29-3.65,3.71C548.46,108.84,548.7,109.1,549.1,109.52Z" />
    <path d="M562.71,114.59l1.43,1.5-6.38,12,.65,1-.68.64-3.31-3.64.68-.63,1.16,1,1.49-2.55-3.7-4-2.67,1.22,1,1.28-.68.63-3-3.24.68-.64.92.76Zm-1.48,2.86.91-1.48-1.54.8-5.71,2.65,3.24,3.52Z" />
    <path d="M560.15,131.73a5.57,5.57,0,0,1,.49-3.33,8.19,8.19,0,0,1,2.44-3,7.85,7.85,0,0,1,3.41-1.73,6.07,6.07,0,0,1,3.51.23,6.44,6.44,0,0,1,2.9,2.1,17.67,17.67,0,0,1,1.86,2.94l.25.58-2.68,2-.77-.92,1.53-1.93a2.33,2.33,0,0,0-.27-.89,6.57,6.57,0,0,0-.88-1.25,3.52,3.52,0,0,0-1.92-1.23,4.54,4.54,0,0,0-2.48.15,8.21,8.21,0,0,0-2.77,1.6,11.42,11.42,0,0,0-2.17,2.37,4.91,4.91,0,0,0-.78,2.54,3.7,3.7,0,0,0,.89,2.38,4.44,4.44,0,0,0,1.15,1,1.77,1.77,0,0,0,.93.35l1.89-.61.65,1L565,137.52a11.16,11.16,0,0,0-.92-.76A4.93,4.93,0,0,1,563,136a7.36,7.36,0,0,1-1.12-1.12A5.21,5.21,0,0,1,560.15,131.73Z" />
    <path
      d="M579.18,138.66a6.74,6.74,0,0,1,3.05.41,5.81,5.81,0,0,1,2.35,1.85,6,6,0,0,1,1.24,3,5.33,5.33,0,0,1-.7,3,8.55,8.55,0,0,1-2.45,2.7,9.65,9.65,0,0,1-3.63,1.78,5.73,5.73,0,0,1-3.41-.2,5.28,5.28,0,0,1-2.55-1.91,6.53,6.53,0,0,1-1.31-3.1,5.41,5.41,0,0,1,.6-3,10.06,10.06,0,0,1,2.36-2.73L572.94,138l-4.36,3.31.84,1.45-.75.51-3.08-4.08.75-.52,1.12,1.12,9.21-7-.76-1.33.77-.61,3,4-.78.61-1.13-1.12-4,3,1.8,2.42A19.89,19.89,0,0,1,579.18,138.66Zm1.62,1.56a8.31,8.31,0,0,0-4.4,2,8.11,8.11,0,0,0-2.85,3.41,3.28,3.28,0,0,0,.44,3.27,3,3,0,0,0,2.94,1.2,8.85,8.85,0,0,0,4.31-2,8.26,8.26,0,0,0,2.85-3.42,3.18,3.18,0,0,0-.38-3.15A3.22,3.22,0,0,0,580.8,140.22Z" />
    <path d="M587.13,158.41a25.85,25.85,0,0,1-1.2,2.94c-.42.81-.6,1.47-.79,1.83s-.21.76-.14.88l.23.67-.75.51-1.33-1.88a1.35,1.35,0,0,1,.12-1.19c.25-.55.57-1.38,1-2.37a28.25,28.25,0,0,0,1.24-2.73,2.11,2.11,0,0,0,.1-1.5l-.65-1-4.38,3,.72,1.51-.75.52-2.84-4.23.75-.51,1,1.19,9.58-6.5-.65-1.4.75-.51,2.77,4.1-.75.52-1-1.19-4.47,3,.86,1.35,6.59.14-.74-1.42.75-.52,2.53,3.84L595,158l-1-1.09-6.75-.28A2.92,2.92,0,0,1,587.13,158.41Z" />
    <path d="M586.75,167.79a5.12,5.12,0,0,1,1.1-3,8.72,8.72,0,0,1,2.81-2.5,7.82,7.82,0,0,1,3.6-1.28,6.52,6.52,0,0,1,3.31.58A5.47,5.47,0,0,1,600,163.9a5.61,5.61,0,0,1,.75,4.79,7.7,7.7,0,0,1-3.5,3.95,8.9,8.9,0,0,1-3.72,1.35,6.9,6.9,0,0,1-3.41-.61,6.26,6.26,0,0,1-2.44-2.28A6.75,6.75,0,0,1,586.75,167.79Zm9.54-5.19a8.66,8.66,0,0,0-4.49,1.55,7.82,7.82,0,0,0-3.2,3.21,3.16,3.16,0,0,0,.13,3.3,3.34,3.34,0,0,0,2.84,1.57,8.15,8.15,0,0,0,4.49-1.54,7.78,7.78,0,0,0,3.2-3.22,3.41,3.41,0,0,0-.13-3.29A3.29,3.29,0,0,0,596.29,162.6Z" />
    <path
      d="M603.78,172.65l-.52-1.46.84-.49,1.26,2.17a12.14,12.14,0,0,0,.85,1.35,10.83,10.83,0,0,1,.73,1.11c.81,1.54,1.22,2.67,1.06,3.65a3,3,0,0,1-1.5,2.15,3.82,3.82,0,0,1-2.37.48,3.17,3.17,0,0,1-2.1-1.28,4.13,4.13,0,0,1,.64,2.93,2.82,2.82,0,0,1-1.56,2,3.84,3.84,0,0,1-3.34.33c-1.12-.4-2.15-1.49-3.19-3.3-.21-.36-.4-.82-.6-1.18-.49-.84-.74-1.42-.81-1.54l-1.26-2.17.82-.39.89,1.25Zm-8.46,9.15a3.73,3.73,0,0,0,2,2,2.91,2.91,0,0,0,2.35-.39,2.86,2.86,0,0,0,1.46-1.64,3.42,3.42,0,0,0-.58-2.4c-.63-1.08-1.05-1.81-1.18-2.05l-4.89,2.66A6.64,6.64,0,0,0,595.32,181.8Zm5.59-4.11.46.94a2.79,2.79,0,0,0,1.57,1.34,2.73,2.73,0,0,0,2.16-.44,2.54,2.54,0,0,0,1.31-1.49,3.23,3.23,0,0,0-.6-2.3,9.5,9.5,0,0,1-.7-1.2l-.21-.36-4.55,2.55Z" />
    <path d="M618.34,198.15l-.82.39-.86-1.35-10.41,5.05.56,1.68-.81.39-2.29-4.78.82-.4.86,1.36,10.51-5-2.63-5.39-10.53,5.12.56,1.68-.81.39-2.31-4.69.82-.39.79,1.23,10.42-5-.5-1.56.81-.39Z" />
    <path d="M608,207.71a5.48,5.48,0,0,1,1.45-2.76,10.76,10.76,0,0,1,3.12-2.12,7.5,7.5,0,0,1,3.76-.73,6.48,6.48,0,0,1,3.18,1.06,5.84,5.84,0,0,1,2.05,2.59,5.28,5.28,0,0,1,0,4.79,7.42,7.42,0,0,1-4.07,3.4,8.22,8.22,0,0,1-3.85.69,6.18,6.18,0,0,1-5.43-3.69A6.38,6.38,0,0,1,608,207.71ZM618.2,204a8.56,8.56,0,0,0-4.72.87,8.21,8.21,0,0,0-3.67,2.69,3.22,3.22,0,0,0-.37,3.26,3.3,3.3,0,0,0,2.62,2,8.16,8.16,0,0,0,4.71-.87,8.37,8.37,0,0,0,3.68-2.68,3.5,3.5,0,0,0,.36-3.27A3.27,3.27,0,0,0,618.2,204Z" />
    <path d="M618,220.15a12.2,12.2,0,0,1-4.06.33,2.43,2.43,0,0,1-1.19-.52,2.58,2.58,0,0,1-.75-1,4,4,0,0,1-.36-1.32L613,217a4.85,4.85,0,0,0,.45,1.35,1,1,0,0,0,.38.51,1.52,1.52,0,0,0,.64.27c1.73.36,4.75-.25,8.95-1.88l1.37-.55-.56-2.08.92-.37L629,224.32l-.91.36-.81-1.54-10.88,4.12.45,1.75-.89.27-2-5.43.89-.27.85,1.75,10.88-4.11-1.3-3.5-1.58.59A25.69,25.69,0,0,1,618,220.15Z" />
    <path d="M629,228.21l-.31-1.51.89-.27,3,9-2.64,1.12-.34-1,1.52-1.12L629.76,230l-5,1.62,1,2.92,1.57-.18.34,1-4.12,1.34-.34-1,1.42-.74-.93-3-5.26,1.75,1.83,5,2.6.18V240l-3.27.45-3.28-9.84.89-.27.65,1.39Z" />
    <path d="M633.82,243l-1-3-4,.46-.29-1.2,4.86-1,3.2,11.25-4.8,1.57-.31-1.11,3.6-1.68-.78-3.16-11.34,3.17.53,2.59-.89.27-1.94-6.83.89-.28.82,2.26Z" />
    <path
      d="M630.87,259l-.17-.86a3.06,3.06,0,0,0-1.38-.57c-.66-.18-1.45-.29-2.42-.45a19.87,19.87,0,0,1-2.12-.46c-.47-.13-.73-.3-.78-.52l-.55-2.49.86-.17.32.69a1.92,1.92,0,0,0,.69.49,14.62,14.62,0,0,1,1.68.56l2.28.61a5.43,5.43,0,0,1,1.33.76,3.67,3.67,0,0,1,.8-2.23,3.78,3.78,0,0,1,2.16-1.25,3.44,3.44,0,0,1,3.31.58,7.06,7.06,0,0,1,1.71,3.51,8.07,8.07,0,0,1,.24,1.39,5.17,5.17,0,0,0,.24,1.39l.62,2.61-.89.27-.61-1.49L626.88,264l.25,1.7-.83.09L625,260.43l.86-.18.57,1.68,4.79-1.16Zm7-.26c-.06-.53-.12-1.05-.21-1.48a3.79,3.79,0,0,0-1.09-2,2.54,2.54,0,0,0-2.29-.2,3.16,3.16,0,0,0-2.07,1.28,3,3,0,0,0-.23,2.38,11.34,11.34,0,0,0,.52,1.87l5.56-1.36Z" />
    <path d="M640.06,269.16l-.69-3.14-4,.15-.2-1.18,5-.61,2.24,11.4-4.89,1.14-.2-1.18L641,274.4l-.48-3.18-11.58,2.19.31,2.63-.86.18-1.39-7,.87-.17.7,2.32Z" />
    <path d="M630.7,286.61a5.63,5.63,0,0,1,2.19-2.47,9.36,9.36,0,0,1,3.6-1.27,7.28,7.28,0,0,1,3.76.39,6.68,6.68,0,0,1,2.81,2.08,6.35,6.35,0,0,1,1.35,3.32,12.87,12.87,0,0,1,0,3.46l-.06.59-3.32.23-.17-1.26,2.26-.83a1.69,1.69,0,0,0,.25-1,5,5,0,0,0-.09-1.55,3.48,3.48,0,0,0-1-2,4.7,4.7,0,0,0-2.22-1.2,9.84,9.84,0,0,0-3.22-.15,10.72,10.72,0,0,0-3.09.9,5.32,5.32,0,0,0-2.08,1.68,3.55,3.55,0,0,0-.54,2.4,5.56,5.56,0,0,0,.4,1.54,2.76,2.76,0,0,0,.58.87l1.9.51,0,1.21-2.72-.11a3.4,3.4,0,0,0-.41-1.13,8.16,8.16,0,0,1-.48-1.25,10.17,10.17,0,0,1-.31-1.51A8.61,8.61,0,0,1,630.7,286.61Z" />
    <path d="M645.6,300.18l-.93.06-.43-1.85-9.39.85,2.39,1.35,7.08,4.75.52-.07.06-1.71.93-.06.46,5.12-.93.05-.33-1.41-11.6,1.07,0,1.62-.94.06L632,304.8l.93-.06.38,1.63,9.48-.82-2.31-1.23-7.15-4.87-.62,0-.06,1.71-.93.06-.44-5.21.94-.06.31,1.51,11.59-1.07.1-1.5.93-.06Z" />
    <path d="M646.88,320.49l-4.87.32-.08-1.24,3.76-.73,0-4.08-11.75.52,0,3.25-.93.05-.38-7.33.93-.06.28,2,11.56-.57.13-2,.93-.06Z" />
    <path d="M645.8,323.76l.19-1.47.91,0,0,5.09-.91,0-.19-1.58h-5l0,6.61h5l.2-1.48.9,0v5l-.91,0-.21-1.48-11.62,0-.19,1.48-.91,0v-5l.91,0,.19,1.58,5.39,0,0-6.61-5.39,0-.22,1.57-.91,0-.06-5.11.91,0,.21,1.48Z" />
    <path d="M646.84,342.68l0,2-13.08,3.93-.21,1.17-.9,0,.2-4.94.91,0,.09,1.55,2.85-.76.24-5.44-2.68-1-.22,1.57-.91,0,.17-4.43.91,0,.1,1.15Zm-3.05,1.12,1.63-.38-1.69-.55-5.92-2.2-.25,4.72Z" />
    <path d="M637.2,355.07a11,11,0,0,1-3.76-1.52,2.22,2.22,0,0,1-.87-.94,2.26,2.26,0,0,1-.2-1.18,3.16,3.16,0,0,1,.24-1.26h1.53a10.62,10.62,0,0,0-.17,1.38.83.83,0,0,0,.13.64.92.92,0,0,0,.47.54c1.34,1.07,4.41,1.79,8.89,2.18l1.5.09.37-2.14.91,0-1,10.75-.9,0,0-1.75-11.54-1.05-.39,1.83-.9,0,.52-5.76.91,0v1.93l11.54,1.05.3-3.79-1.7-.15A51,51,0,0,1,637.2,355.07Z" />
    <path d="M638.85,371a4.88,4.88,0,0,1-1.61,3.34,3.93,3.93,0,0,1-3.17.78,4.13,4.13,0,0,1-3.07-1.84,5.34,5.34,0,0,1-.62-3.73,1.2,1.2,0,0,0,0-.6c0-.21.1-.38.18-.66.18-.67.26-1.36.41-1.93l.38-2.55.88.14,0,1.62,11.57,1.68.5-1.5.88.13-.81,5.29-.88-.13-.11-1.87-4.31-.64Zm-7.24-2.65a4.29,4.29,0,0,0-.16,1,2.87,2.87,0,0,0,.56,2.49,3.14,3.14,0,0,0,2.34,1.14,2.87,2.87,0,0,0,2.37-.49,3.17,3.17,0,0,0,1.11-2.25l.3-1.85-6.29-.87C631.74,367.87,631.66,368.15,631.61,368.34Zm10.94,15.06-.88-.14.05-1.72-11.47-1.65-.46,1.72-.88-.14.73-5.4.88.13,0,1.72L642,379.57l.46-1.71.88.13Z" />
    <path d="M639.74,391.61l.57-1.38.86.23-1.14,5-.85-.23.12-1.59-4.9-1.11L633,399l4.9,1.11.57-1.37.86.22-1.11,4.9-.86-.23.1-1.5-11.37-2.43-.47,1.4-.86-.23,1.11-4.9.85.23-.09,1.5,5.3,1.12,1.42-6.45-5.3-1.11-.53,1.59-.85-.23,1.13-5,.86.22-.1,1.51Z" />
    <path d="M636.71,410.15l-.54,2-13.57,1.25-.5,1.09-.85-.23,1.17-4.77.86.22-.22,1.58,2.89-.15,1.31-5.25-2.46-1.47-.6,1.47-.85-.23,1-4.3.85.23-.11,1.19Zm-3.16.37,1.74,0-1.51-.81-5.34-3.27L627.31,411Z" />
    <path d="M631.18,425.06l.92-1.89.83.32-1.56,4.68-8.8-.22-2.41-.14,2.1,1.28,7.17,5.18L627.87,439l-.83-.33.44-2L616,434.33l-.7,1.44-.82-.32,1.68-5.15.83.32-.34,1.65,8.25,1.9,3.57.75-2.31-1.64-8.25-6.08.4-1.11h9.47l3.75.09-3.36-1.52-7.75-3.4-.77,1.73-.83-.32,1.53-4.58.83.32-.31,1.55Z" />
    <path d="M625.25,445.68l-.72,1.94-13.62-.49-.57,1-.83-.32,1.85-4.6.83.32-.41,1.52,2.91.17,2-5.07-2.26-1.83-.79,1.42-.83-.33,1.62-4.15.83.33-.21,1.16Zm-3.24-.06,1.69.15-1.37-1-4.85-3.94-1.7,4.43Z" />
    <path d="M620.18,454.71l.83-1.2.84.32-1,2.28c-.22.45-.33.82-.52,1.18-.28.64-.43,1.21-.68,1.76a6,6,0,0,1-2.46,3.1A4,4,0,0,1,614,462a5,5,0,0,1-2.09-1.68,4.53,4.53,0,0,1-.78-2.44,5.61,5.61,0,0,1,.65-2.79c.2-.35.27-.64.47-1s.25-.55.37-.62l-3.75-1.61-1.2,2.22-.83-.32,2.5-5.54.83.32-.5,1.5Zm-7.55.83a3.29,3.29,0,0,0-.19,2.6c.27.88,1,1.49,2.31,2a2.88,2.88,0,0,0,2.38.23,3.83,3.83,0,0,0,1.65-2,5,5,0,0,0,.43-1.21q.12-.42.15-.57L613.25,454C613.17,454.26,612.93,454.8,612.63,455.54Z" />
    <path d="M603.72,461.81a6.44,6.44,0,0,1,3.18-.88,8.41,8.41,0,0,1,3.71,1,7.47,7.47,0,0,1,2.92,2.42,6.17,6.17,0,0,1,1.16,3.26,6.09,6.09,0,0,1-.73,3.47,20.3,20.3,0,0,1-1.91,2.95l-.34.52-2.93-1.6.49-1.09,2.38.64a1.73,1.73,0,0,0,.77-.61,11.26,11.26,0,0,0,.86-1.3,3,3,0,0,0,.3-2.26,4.85,4.85,0,0,0-1.13-2.24,9.86,9.86,0,0,0-2.64-1.93,12.81,12.81,0,0,0-3.08-1,4.56,4.56,0,0,0-2.73.29,3.29,3.29,0,0,0-1.8,1.76,4.73,4.73,0,0,0-.5,1.5,1.68,1.68,0,0,0,0,1l1.34,1.48-.66.95-2.22-1.62c.08-.28.18-.66.31-1.14s.13-.88.26-1.35a10.63,10.63,0,0,1,.6-1.47A7.1,7.1,0,0,1,603.72,461.81Z" />
    <path d="M604.09,489.31l-.78-.52.77-1.73L596,482.35l1.18,2.45,2.94,8,.45.22,1.07-1.34.78.51-2.6,4.4-.78-.51.57-1.38-10-5.85-.95,1.27-.81-.41,2.63-4.49.8.41-.71,1.54,8.17,4.84-1.22-2.26-2.92-8.12-.62-.37-1.09,1.44-.81-.42,2.66-4.58.8.42-.6,1.47,10,5.85.92-1.18.78.51Z" />
    <path
      d="M597.37,499.93c-.25.55-.37,1-.57,1.38s-.4.71-.57,1a6.27,6.27,0,0,1-2.62,2.55,2.84,2.84,0,0,1-2.69-.21,3.1,3.1,0,0,1-1.47-2.12,4.41,4.41,0,0,1,.28-2.58,3.81,3.81,0,0,1-2.29,1.73,3,3,0,0,1-2.43-.45,3.6,3.6,0,0,1-1.91-2.75,6.11,6.11,0,0,1,1.26-3.94,11.31,11.31,0,0,1,1.24-1.6c.42-.4.8-.7,1.07-.94s.41-.39.51-.37l2.52,2-.52.78-2.3-.92a5.9,5.9,0,0,0-1.82,1.85,2.5,2.5,0,0,0-.44,2,3.59,3.59,0,0,0,3.59,2.19,2.92,2.92,0,0,0,1.94-1.52l.71-1.13.87.53-.54.88a4,4,0,0,0-.57,1.37,3.57,3.57,0,0,0,.21,1.49,2.88,2.88,0,0,0,1.11,1.21,2.21,2.21,0,0,0,1.92.41,3.2,3.2,0,0,0,1.58-1.31,2.33,2.33,0,0,0,.54-1.28,1.2,1.2,0,0,0-.05-.93L594.64,498l.66-.94,2.48,1.37A8.74,8.74,0,0,1,597.37,499.93Z" />
    <path
      d="M587.58,512.89l1.12-1.12.78.51L588,514.33a10.36,10.36,0,0,0-.88,1.4c-.34.52-.54.87-.71,1.13a6.22,6.22,0,0,1-2.81,2.51,2.6,2.6,0,0,1-2.52-.48,3.21,3.21,0,0,1-1.4-2,3.75,3.75,0,0,1,.23-2.38,4.48,4.48,0,0,1-2.32,1.82,2.91,2.91,0,0,1-2.5-.57,4,4,0,0,1-1.67-2.89,6.39,6.39,0,0,1,1.65-4.24c.29-.33.49-.69.78-1,.61-.75.95-1.27,1.07-1.34l1.47-2,.78.52-.77,1.32Zm-11.91-3.8a4.37,4.37,0,0,0-1,2.68,3.47,3.47,0,0,0,3.47,2.66,3.57,3.57,0,0,0,1.93-1.52,23.81,23.81,0,0,0,1.35-2l-4.53-3.25A8.63,8.63,0,0,0,575.67,509.09Zm6.05,3.25-.63.85a2.53,2.53,0,0,0-.54,2,3.36,3.36,0,0,0,3.23,2.39,3.62,3.62,0,0,0,1.84-1.54,6,6,0,0,0,.71-1.14l.2-.35-4.17-3.06C582.31,511.69,582,511.92,581.72,512.34Z" />
    <path d="M578.81,526.64l-1.25,1.6-12.95-4.49-.83.8-.75-.61,3.07-3.87.76.61L566,522l2.68,1,3.39-4.29-1.61-2.37-1.12,1.13-.75-.61,2.76-3.44.75.61-.59,1.07Zm-3.09-1,1.57.62-1-1.4-3.5-5.22-2.92,3.7Z" />
    <path d="M561.45,526.77a6.22,6.22,0,0,1,3.37,0,9.37,9.37,0,0,1,3.36,1.92,7.15,7.15,0,0,1,2.24,3,6.52,6.52,0,0,1,.3,3.44,6.93,6.93,0,0,1-1.56,3.15,17.44,17.44,0,0,1-2.57,2.37l-.51.37-2.41-2.38.84-.89,2.13,1.18a2.19,2.19,0,0,0,.94-.46,3.64,3.64,0,0,0,1.12-1.13,3,3,0,0,0,.87-2.11,3.64,3.64,0,0,0-.58-2.39,8,8,0,0,0-2.08-2.49,10,10,0,0,0-2.69-1.74,5.9,5.9,0,0,0-2.65-.41,3.13,3.13,0,0,0-2.17,1.26,3.68,3.68,0,0,0-.85,1.29,3.41,3.41,0,0,0-.26,1l.86,1.76-.92.77-1.69-2.08a4.39,4.39,0,0,0,.59-1.06c.23-.45.42-.81.62-1.16a7.26,7.26,0,0,1,1-1.27A5.5,5.5,0,0,1,561.45,526.77Z" />
    <path
      d="M557.54,546.71a5.6,5.6,0,0,1,.09,3.08,5,5,0,0,1-1.5,2.55,5.87,5.87,0,0,1-2.8,1.7,5.39,5.39,0,0,1-3.09-.22,10,10,0,0,1-3-1.94,8.11,8.11,0,0,1-2.26-3.36,5.65,5.65,0,0,1-.32-3.34,5.84,5.84,0,0,1,1.48-2.86,6.88,6.88,0,0,1,2.82-1.8,5.43,5.43,0,0,1,3.1.22,10,10,0,0,1,3,1.94l2.12-2.18-4-3.82-1.28,1-.64-.67,3.55-3.74.66.58-1,1.28,8.33,8,1.17-.91.63.67-3.52,3.64-.64-.67,1-1.28-3.64-3.52-2.11,2.18A10.3,10.3,0,0,1,557.54,546.71Zm-1.17,1.72a8.9,8.9,0,0,0-2.61-4,7.86,7.86,0,0,0-3.88-2.26,3.37,3.37,0,0,0-3.21,1,3,3,0,0,0-.82,3.05,11.15,11.15,0,0,0,6.46,6.31,2.94,2.94,0,0,0,3.09-.9A3.63,3.63,0,0,0,556.37,548.43Z" />
    <path d="M539.27,557.5a29.36,29.36,0,0,1-3.07-.72l-2-.54a1.23,1.23,0,0,0-.94.06l-.69.32-.64-.68,1.65-1.59a1.53,1.53,0,0,1,1.25-.08l2.56.69a15.32,15.32,0,0,0,3,.79,1.42,1.42,0,0,0,1.48-.21l.83-.8L539,550.81l-1.37,1-.64-.68,3.79-3.47.63.68-1,1.15,7.9,8.53,1.25-.88.63.68-3.66,3.4-.63-.68,1-1.27-3.63-3.93L542,556.4l.89,6.55,1.25-.88.64.68-3.4,3.16-.63-.68.93-1.18-.75-6.71C540.77,557.6,540.05,557.61,539.27,557.5Z" />
    <path d="M530,558.68a4.91,4.91,0,0,1,3.09.62,9.14,9.14,0,0,1,2.92,2.41,8.11,8.11,0,0,1,1.83,3.45,5.72,5.72,0,0,1-.08,3.34,6.39,6.39,0,0,1-1.86,2.76,5.74,5.74,0,0,1-4.59,1.52,8,8,0,0,1-4.53-2.84,8.11,8.11,0,0,1-1.83-3.45,5.8,5.8,0,0,1,.11-3.43,5.26,5.26,0,0,1,1.86-2.76A4.83,4.83,0,0,1,530,558.68Zm6.56,8.58a8.1,8.1,0,0,0-2.24-4.16,8.63,8.63,0,0,0-3.66-2.72,3.11,3.11,0,0,0-3.2.57,3.17,3.17,0,0,0-1.13,3.06,8.85,8.85,0,0,0,2.22,4.26,8.49,8.49,0,0,0,3.65,2.71,3.4,3.4,0,0,0,3.24-.66A3.18,3.18,0,0,0,536.55,567.26Z" />
    <path
      d="M527.86,576.14l1.32-.77.61.77-1.93,1.52a5.55,5.55,0,0,0-1.22,1.1,6.26,6.26,0,0,1-1,.85,6.7,6.7,0,0,1-3.39,1.63,2.7,2.7,0,0,1-2.34-1.13,3.44,3.44,0,0,1-.82-2.26,3.34,3.34,0,0,1,.89-2.21,4,4,0,0,1-2.74,1.11,3.06,3.06,0,0,1-2.31-1.24,4.14,4.14,0,0,1-.86-3.28,6.73,6.73,0,0,1,2.71-3.66c.39-.3.75-.51,1-.74.77-.61,1.25-.89,1.4-1.05l1.94-1.52.51.75-1.12,1.12Zm-10.39-6.86a3.65,3.65,0,0,0-1.64,2.31,3,3,0,0,0,.71,2.33,2.81,2.81,0,0,0,1.91,1.22,3.25,3.25,0,0,0,2.28-.91,10.19,10.19,0,0,0,1.84-1.55l-3.41-4.37C518.78,568.2,518.27,568.58,517.47,569.28Zm4.93,4.78-.77.61a2.86,2.86,0,0,0-1.11,1.84,2.51,2.51,0,0,0,.78,2,2.72,2.72,0,0,0,1.75,1.08,3.47,3.47,0,0,0,2.19-.95c.38-.3.68-.63,1.06-.93l.27-.24-3.18-4.11A4,4,0,0,0,522.4,574.06Z" />
    <circle cx="113.2" cy="108.15" r="2" />
    <circle cx="517.7" cy="82.52" r="2" />
  </g>
</svg>
